# xmcd
#
# Track frame offsets: 
#        150
#        16330
#        34096
#        48517
#        63082
#        79230
#        97746
#
# Disc length: 1477 seconds
#
# Revision: 0
# Processed by: cddbd v1.5.2PL0 Copyright (c) Steve Scherf et al.
# Submitted via: ExactAudioCopyFreeDBPlugin 1.0
#
DISCID=4905c307
DTITLE=Bob Corbett - Grass Cover
DYEAR=2013
DGENRE=Country
TTITLE0=The Battle of New Orleans
TTITLE1=You Ain't Going Nowhere
TTITLE2=Turkey In The Straw
TTITLE3=Take Me Home, Country Roads
TTITLE4=The Devil Went Down To Georgia
TTITLE5=Flame Trees
TTITLE6=Blackberry Blossom
EXTD=
EXTT0=
EXTT1=
EXTT2=
EXTT3=
EXTT4=
EXTT5=
EXTT6=
PLAYORDER=
